<?xml version="1.0" encoding="UTF-8" standalone="no"?>
<!DOCTYPE svg PUBLIC "-//W3C//DTD SVG 1.1//EN"
 "http://www.w3.org/Graphics/SVG/1.1/DTD/svg11.dtd">
<!-- Generated by graphviz version 2.43.0 (0)
 -->
<!-- Title: %3 Pages: 1 -->
<svg width="282pt" height="364pt"
 viewBox="0.00 0.00 282.00 363.99" xmlns="http://www.w3.org/2000/svg" xmlns:xlink="http://www.w3.org/1999/xlink">
<g id="graph0" class="graph" transform="scale(1 1) rotate(0) translate(4 359.99)">
<title>%3</title>
<polygon fill="white" stroke="transparent" points="-4,4 -4,-359.99 278,-359.99 278,4 -4,4"/>
<!-- root -->
<g id="node1" class="node">
<title>root</title>
<ellipse fill="none" stroke="black" cx="158" cy="-337.99" rx="27" ry="18"/>
<text text-anchor="middle" x="158" y="-334.29" font-family="Times,serif" font-size="14.00">/</text>
</g>
<!-- home -->
<g id="node2" class="node">
<title>home</title>
<ellipse fill="none" stroke="black" cx="60" cy="-265.99" rx="36.29" ry="18"/>
<text text-anchor="middle" x="60" y="-262.29" font-family="Times,serif" font-size="14.00">home</text>
</g>
<!-- root&#45;&gt;home -->
<g id="edge1" class="edge">
<title>root&#45;&gt;home</title>
<path fill="none" stroke="black" d="M140.03,-324.15C125.53,-313.8 104.89,-299.05 88.2,-287.13"/>
<polygon fill="black" stroke="black" points="90.06,-284.16 79.88,-281.19 85.99,-289.85 90.06,-284.16"/>
</g>
<!-- var -->
<g id="node3" class="node">
<title>var</title>
<ellipse fill="none" stroke="black" cx="158" cy="-265.99" rx="27" ry="18"/>
<text text-anchor="middle" x="158" y="-262.29" font-family="Times,serif" font-size="14.00">var</text>
</g>
<!-- root&#45;&gt;var -->
<g id="edge2" class="edge">
<title>root&#45;&gt;var</title>
<path fill="none" stroke="black" d="M158,-319.69C158,-311.97 158,-302.7 158,-294.1"/>
<polygon fill="black" stroke="black" points="161.5,-294.1 158,-284.1 154.5,-294.1 161.5,-294.1"/>
</g>
<!-- usr -->
<g id="node4" class="node">
<title>usr</title>
<ellipse fill="none" stroke="black" cx="238" cy="-265.99" rx="27" ry="18"/>
<text text-anchor="middle" x="238" y="-262.29" font-family="Times,serif" font-size="14.00">usr</text>
</g>
<!-- root&#45;&gt;usr -->
<g id="edge3" class="edge">
<title>root&#45;&gt;usr</title>
<path fill="none" stroke="black" d="M173.81,-323.16C185.42,-313 201.39,-299.02 214.5,-287.55"/>
<polygon fill="black" stroke="black" points="217.01,-290.01 222.23,-280.79 212.4,-284.74 217.01,-290.01"/>
</g>
<!-- pjd -->
<g id="node5" class="node">
<title>pjd</title>
<ellipse fill="none" stroke="black" cx="27" cy="-193.99" rx="27" ry="18"/>
<text text-anchor="middle" x="27" y="-190.29" font-family="Times,serif" font-size="14.00">pjd</text>
</g>
<!-- home&#45;&gt;pjd -->
<g id="edge4" class="edge">
<title>home&#45;&gt;pjd</title>
<path fill="none" stroke="black" d="M52.18,-248.4C48.28,-240.12 43.46,-229.92 39.1,-220.65"/>
<polygon fill="black" stroke="black" points="42.19,-219.01 34.76,-211.46 35.86,-222 42.19,-219.01"/>
</g>
<!-- tmp -->
<g id="node6" class="node">
<title>tmp</title>
<ellipse fill="none" stroke="black" cx="101" cy="-193.99" rx="29.5" ry="18"/>
<text text-anchor="middle" x="101" y="-190.29" font-family="Times,serif" font-size="14.00">tmp</text>
</g>
<!-- var&#45;&gt;tmp -->
<g id="edge6" class="edge">
<title>var&#45;&gt;tmp</title>
<path fill="none" stroke="black" d="M145.63,-249.8C138.19,-240.66 128.56,-228.84 120.16,-218.51"/>
<polygon fill="black" stroke="black" points="122.77,-216.18 113.74,-210.63 117.34,-220.6 122.77,-216.18"/>
</g>
<!-- file2 -->
<g id="node8" class="node">
<title>file2</title>
<polygon fill="none" stroke="black" points="202,-211.99 148,-211.99 148,-175.99 202,-175.99 202,-211.99"/>
<text text-anchor="middle" x="175" y="-190.29" font-family="Times,serif" font-size="14.00">file2</text>
</g>
<!-- var&#45;&gt;file2 -->
<g id="edge5" class="edge">
<title>var&#45;&gt;file2</title>
<path fill="none" stroke="black" d="M162.12,-248.05C164.01,-240.25 166.3,-230.81 168.42,-222.07"/>
<polygon fill="black" stroke="black" points="171.85,-222.81 170.8,-212.27 165.04,-221.16 171.85,-222.81"/>
</g>
<!-- file1 -->
<g id="node7" class="node">
<title>file1</title>
<polygon fill="none" stroke="black" points="274,-211.99 220,-211.99 220,-175.99 274,-175.99 274,-211.99"/>
<text text-anchor="middle" x="247" y="-190.29" font-family="Times,serif" font-size="14.00">file1</text>
</g>
<!-- usr&#45;&gt;file1 -->
<g id="edge7" class="edge">
<title>usr&#45;&gt;file1</title>
<path fill="none" stroke="black" d="M240.18,-248.05C241.17,-240.34 242.37,-231.02 243.48,-222.36"/>
<polygon fill="black" stroke="black" points="246.98,-222.63 244.78,-212.27 240.03,-221.74 246.98,-222.63"/>
</g>
<!-- file3 -->
<g id="node9" class="node">
<title>file3</title>
<polygon fill="none" stroke="black" points="54,-131.34 0,-131.34 0,-95.34 54,-95.34 54,-131.34"/>
<text text-anchor="middle" x="27" y="-109.64" font-family="Times,serif" font-size="14.00">file3</text>
</g>
<!-- pjd&#45;&gt;file3 -->
<g id="edge8" class="edge">
<title>pjd&#45;&gt;file3</title>
<path fill="none" stroke="black" d="M27,-175.93C27,-165.93 27,-153.07 27,-141.69"/>
<polygon fill="black" stroke="black" points="30.5,-141.38 27,-131.38 23.5,-141.38 30.5,-141.38"/>
</g>
<!-- aaa -->
<g id="node10" class="node">
<title>aaa</title>
<ellipse fill="none" stroke="black" cx="247" cy="-113.34" rx="26.8" ry="26.8"/>
<text text-anchor="middle" x="247" y="-109.64" font-family="Times,serif" font-size="14.00">aaa</text>
</g>
<!-- file1&#45;&gt;aaa -->
<g id="edge12" class="edge">
<title>file1&#45;&gt;aaa</title>
<path fill="none" stroke="black" d="M247,-175.93C247,-168.39 247,-159.23 247,-150.31"/>
<polygon fill="black" stroke="black" points="250.5,-150.05 247,-140.05 243.5,-150.05 250.5,-150.05"/>
</g>
<!-- eee -->
<g id="node12" class="node">
<title>eee</title>
<ellipse fill="none" stroke="black" cx="175" cy="-113.34" rx="26.8" ry="26.8"/>
<text text-anchor="middle" x="175" y="-109.64" font-family="Times,serif" font-size="14.00">eee</text>
</g>
<!-- file2&#45;&gt;eee -->
<g id="edge10" class="edge">
<title>file2&#45;&gt;eee</title>
<path fill="none" stroke="black" d="M175,-175.93C175,-168.39 175,-159.23 175,-150.31"/>
<polygon fill="black" stroke="black" points="178.5,-150.05 175,-140.05 171.5,-150.05 178.5,-150.05"/>
</g>
<!-- fff -->
<g id="node13" class="node">
<title>fff</title>
<ellipse fill="none" stroke="black" cx="27" cy="-25.35" rx="20.6" ry="20.6"/>
<text text-anchor="middle" x="27" y="-21.65" font-family="Times,serif" font-size="14.00">fff</text>
</g>
<!-- file3&#45;&gt;fff -->
<g id="edge9" class="edge">
<title>file3&#45;&gt;fff</title>
<path fill="none" stroke="black" d="M27,-94.94C27,-83.97 27,-69.52 27,-56.7"/>
<polygon fill="black" stroke="black" points="30.5,-56.44 27,-46.44 23.5,-56.44 30.5,-56.44"/>
</g>
<!-- ccc -->
<g id="node11" class="node">
<title>ccc</title>
<ellipse fill="none" stroke="black" cx="175" cy="-25.35" rx="25.2" ry="25.2"/>
<text text-anchor="middle" x="175" y="-21.65" font-family="Times,serif" font-size="14.00">ccc</text>
</g>
<!-- eee&#45;&gt;ccc -->
<g id="edge11" class="edge">
<title>eee&#45;&gt;ccc</title>
<path fill="none" stroke="black" d="M175,-86.54C175,-78.52 175,-69.55 175,-61.03"/>
<polygon fill="black" stroke="black" points="178.5,-60.95 175,-50.95 171.5,-60.95 178.5,-60.95"/>
</g>
</g>
</svg>
